<mxfile host="app.diagrams.net" modified="2022-07-13T15:31:07.488Z" agent="5.0 (Windows NT 10.0; Win64; x64) AppleWebKit/537.36 (KHTML, like Gecko) Chrome/103.0.0.0 Safari/537.36" etag="2YKtCKhpLl9Q28MkowAF" version="20.0.1" type="github">
  <diagram id="Gnu-nJ8GH0qcafx3-Hsz" name="Page-1">
    <mxGraphModel dx="748" dy="358" grid="1" gridSize="10" guides="1" tooltips="1" connect="1" arrows="1" fold="1" page="1" pageScale="1" pageWidth="827" pageHeight="1169" math="0" shadow="0">
      <root>
        <mxCell id="0" />
        <mxCell id="1" parent="0" />
        <mxCell id="oSrQM-q-5C8ZIn2dSp9f-2" value="" style="shape=datastore;whiteSpace=wrap;html=1;" vertex="1" parent="1">
          <mxGeometry x="349.73" y="97.83" width="60" height="60" as="geometry" />
        </mxCell>
        <mxCell id="oSrQM-q-5C8ZIn2dSp9f-6" value="" style="shape=singleArrow;direction=west;whiteSpace=wrap;html=1;rotation=0;" vertex="1" parent="1">
          <mxGeometry x="325" y="250" width="100" height="20" as="geometry" />
        </mxCell>
        <mxCell id="oSrQM-q-5C8ZIn2dSp9f-8" value="База данных" style="text;html=1;strokeColor=none;fillColor=none;align=center;verticalAlign=middle;whiteSpace=wrap;rounded=0;fontStyle=1" vertex="1" parent="1">
          <mxGeometry x="329.73" y="77.83" width="100" height="20" as="geometry" />
        </mxCell>
        <mxCell id="oSrQM-q-5C8ZIn2dSp9f-9" value="" style="shape=singleArrow;direction=east;whiteSpace=wrap;html=1;rotation=0;" vertex="1" parent="1">
          <mxGeometry x="330" y="270" width="100" height="20" as="geometry" />
        </mxCell>
        <mxCell id="oSrQM-q-5C8ZIn2dSp9f-12" value="" style="shape=singleArrow;direction=north;whiteSpace=wrap;html=1;rotation=60;" vertex="1" parent="1">
          <mxGeometry x="259.44" y="113" width="20" height="100" as="geometry" />
        </mxCell>
        <mxCell id="oSrQM-q-5C8ZIn2dSp9f-16" value="" style="shape=singleArrow;direction=north;whiteSpace=wrap;html=1;rotation=-60;" vertex="1" parent="1">
          <mxGeometry x="477" y="110" width="19.56" height="100" as="geometry" />
        </mxCell>
        <mxCell id="oSrQM-q-5C8ZIn2dSp9f-17" value="" style="shape=singleArrow;direction=south;whiteSpace=wrap;html=1;rotation=-60;" vertex="1" parent="1">
          <mxGeometry x="467" y="127.83" width="20.44" height="100" as="geometry" />
        </mxCell>
        <mxCell id="oSrQM-q-5C8ZIn2dSp9f-22" value="Данные для принятия решений" style="text;html=1;strokeColor=none;fillColor=none;align=center;verticalAlign=middle;whiteSpace=wrap;rounded=0;rotation=-30;fontSize=10;" vertex="1" parent="1">
          <mxGeometry x="174.99999999999997" y="110" width="150" height="30" as="geometry" />
        </mxCell>
        <mxCell id="oSrQM-q-5C8ZIn2dSp9f-23" value="Адаптивное управление" style="text;html=1;strokeColor=none;fillColor=none;align=center;verticalAlign=middle;whiteSpace=wrap;rounded=0;rotation=0;direction=west;fontSize=10;" vertex="1" parent="1">
          <mxGeometry x="340" y="230" width="80" height="20" as="geometry" />
        </mxCell>
        <mxCell id="oSrQM-q-5C8ZIn2dSp9f-24" value="Оптимизация режима работы оборудования" style="text;html=1;strokeColor=none;fillColor=none;align=center;verticalAlign=middle;whiteSpace=wrap;rounded=0;rotation=0;direction=west;fontSize=10;" vertex="1" parent="1">
          <mxGeometry x="340" y="300" width="80" height="20" as="geometry" />
        </mxCell>
        <mxCell id="oSrQM-q-5C8ZIn2dSp9f-25" value="Данные, полученные на модели" style="text;html=1;strokeColor=none;fillColor=none;align=center;verticalAlign=middle;whiteSpace=wrap;rounded=0;rotation=30;flipV=1;flipH=1;fontSize=10;" vertex="1" parent="1">
          <mxGeometry x="437" y="127.83" width="150" height="30" as="geometry" />
        </mxCell>
        <mxCell id="oSrQM-q-5C8ZIn2dSp9f-30" value="" style="shape=image;verticalLabelPosition=bottom;labelBackgroundColor=default;verticalAlign=top;aspect=fixed;imageAspect=0;image=https://static.turbosquid.com/Preview/2019/01/23__01_16_02/complex3dmodelwithshearerloader1.jpg61E9D42A-FA9E-46B9-BD13-3F04E4DED708Default.jpg;" vertex="1" parent="1">
          <mxGeometry x="445.99" y="220" width="146.67" height="110" as="geometry" />
        </mxCell>
        <mxCell id="oSrQM-q-5C8ZIn2dSp9f-31" value="Цифровая модель" style="text;html=1;strokeColor=none;fillColor=none;align=center;verticalAlign=middle;whiteSpace=wrap;rounded=0;rotation=0;direction=west;fontStyle=1" vertex="1" parent="1">
          <mxGeometry x="440.34" y="320" width="146.66" height="20" as="geometry" />
        </mxCell>
        <mxCell id="oSrQM-q-5C8ZIn2dSp9f-33" value="" style="shape=image;verticalLabelPosition=bottom;labelBackgroundColor=default;verticalAlign=top;aspect=fixed;imageAspect=0;image=https://www.e-mj.com/wp-content/uploads/2020/03/1-Eickhoff-SL-900-shearer-loader.jpg;" vertex="1" parent="1">
          <mxGeometry x="173" y="227.83" width="138.12" height="92.17" as="geometry" />
        </mxCell>
        <mxCell id="oSrQM-q-5C8ZIn2dSp9f-34" value="Физический объект" style="text;html=1;strokeColor=none;fillColor=none;align=center;verticalAlign=middle;whiteSpace=wrap;rounded=0;rotation=0;direction=west;fontStyle=1" vertex="1" parent="1">
          <mxGeometry x="175.73" y="320" width="146.66" height="20" as="geometry" />
        </mxCell>
        <mxCell id="oSrQM-q-5C8ZIn2dSp9f-35" value="" style="shape=datastore;whiteSpace=wrap;html=1;" vertex="1" parent="1">
          <mxGeometry x="349.73" y="97.83" width="60" height="60" as="geometry" />
        </mxCell>
        <mxCell id="oSrQM-q-5C8ZIn2dSp9f-38" value="" style="shape=singleArrow;direction=south;whiteSpace=wrap;html=1;rotation=60;" vertex="1" parent="1">
          <mxGeometry x="252.02" y="92.66" width="20" height="100" as="geometry" />
        </mxCell>
        <mxCell id="oSrQM-q-5C8ZIn2dSp9f-43" value="Данные с датчиков&lt;br style=&quot;font-size: 10px;&quot;&gt;" style="text;html=1;strokeColor=none;fillColor=none;align=center;verticalAlign=middle;whiteSpace=wrap;rounded=0;rotation=-30;fontSize=10;" vertex="1" parent="1">
          <mxGeometry x="210" y="162.83" width="150" height="30" as="geometry" />
        </mxCell>
        <mxCell id="oSrQM-q-5C8ZIn2dSp9f-48" value="Фактические данные" style="text;html=1;strokeColor=none;fillColor=none;align=center;verticalAlign=middle;whiteSpace=wrap;rounded=0;rotation=30;flipV=1;flipH=1;fontSize=10;" vertex="1" parent="1">
          <mxGeometry x="409.73" y="183" width="100" height="30" as="geometry" />
        </mxCell>
      </root>
    </mxGraphModel>
  </diagram>
</mxfile>
